<svg width="17" height="17" viewBox="0 0 17 17" fill="none" xmlns="http://www.w3.org/2000/svg">
<g clip-path="url(#clip0_0_170)">
<path d="M0.708374 0.708332H3.54171L5.44004 10.1929C5.50481 10.519 5.68222 10.812 5.94122 11.0205C6.20021 11.229 6.52428 11.3397 6.85671 11.3333H13.7417C14.0741 11.3397 14.3982 11.229 14.6572 11.0205C14.9162 10.812 15.0936 10.519 15.1584 10.1929L16.2917 4.25H4.25004M7.08337 14.875C7.08337 15.2662 6.76624 15.5833 6.37504 15.5833C5.98384 15.5833 5.66671 15.2662 5.66671 14.875C5.66671 14.4838 5.98384 14.1667 6.37504 14.1667C6.76624 14.1667 7.08337 14.4838 7.08337 14.875ZM14.875 14.875C14.875 15.2662 14.5579 15.5833 14.1667 15.5833C13.7755 15.5833 13.4584 15.2662 13.4584 14.875C13.4584 14.4838 13.7755 14.1667 14.1667 14.1667C14.5579 14.1667 14.875 14.4838 14.875 14.875Z" stroke="white" stroke-width="2" stroke-linecap="round" stroke-linejoin="round"/>
</g>
<defs>
<clipPath id="clip0_0_170">
<rect width="17" height="17" fill="white"/>
</clipPath>
</defs>
</svg>
